<?xml version="1.0" encoding="UTF-8"?>
<svg width="132px" height="23px" viewBox="0 0 132 23" version="1.1" xmlns="http://www.w3.org/2000/svg" xmlns:xlink="http://www.w3.org/1999/xlink">
    <!-- Generator: sketchtool 58 (101010) - https://sketch.com -->
    <title>0E742F6D-70D1-47E8-B627-0CAFBBEC2016@1</title>
    <desc>Created with sketchtool.</desc>
    <defs>
        <linearGradient x1="100%" y1="50%" x2="0%" y2="50%" id="linearGradient-1">
            <stop stop-color="#21AACB" offset="0%"></stop>
            <stop stop-color="#5F56D9" offset="100%"></stop>
        </linearGradient>
    </defs>
    <g id="Page-1" stroke="none" stroke-width="1" fill="none" fill-rule="evenodd">
        <g id="Connected-cars" transform="translate(-60.000000, -53.000000)" fill="url(#linearGradient-1)">
            <path d="M188.116127,56.5233519 C187.755746,56.5233519 187.481968,56.659029 187.303873,56.9275856 C187.141841,57.1737625 187.062921,57.5772967 187.062921,58.1619668 C187.062921,58.7802065 187.12019,59.1683547 187.242413,59.3830602 C187.338794,59.5530061 187.545524,59.7558223 187.985524,59.7558223 L188.848063,59.7558223 L188.848063,71.6072812 C188.848063,72.099635 189.121841,72.6871025 190.424381,72.6871025 C191.726921,72.6871025 192,72.099635 192,71.6072812 L192,57.8941096 C192,57.2688763 191.703873,56.5233519 190.293778,56.5233519 L188.116127,56.5233519 Z M179.142921,69.544151 L174.076635,69.544151 L174.076635,65.6738587 L178.925016,65.6738587 C179.44673,65.6738587 179.818984,65.565457 180.06273,65.3416598 C180.310667,65.1150652 180.435683,64.7430024 180.435683,64.2366613 C180.435683,63.733817 180.312063,63.3561593 180.068317,63.1141786 C179.825968,62.8756947 179.441841,62.7547044 178.925016,62.7547044 L174.076635,62.7547044 L174.076635,59.3977468 L179.142921,59.3977468 C179.608762,59.3977468 179.981016,59.2893451 180.248508,59.0746397 C180.53346,58.8466463 180.669651,58.4619949 180.653587,57.9318754 C180.636825,57.411547 180.499238,57.0338892 180.245016,56.8086933 C179.997079,56.5897917 179.633206,56.4785925 179.164571,56.4785925 L172.434667,56.4785925 C171.919937,56.4785925 171.537905,56.5800006 171.266921,56.7884117 C170.981968,57.0080127 170.837397,57.3870691 170.837397,57.91579 L170.837397,71.0261079 C170.837397,71.574411 170.991746,71.9597617 171.296952,72.1709703 C171.577714,72.3653941 171.959746,72.4640047 172.434667,72.4640047 L179.142921,72.4640047 C179.745651,72.4640047 180.170286,72.3625966 180.44127,72.1541855 C180.726222,71.9345845 180.871492,71.5471357 180.871492,71.0037282 C180.871492,70.4610201 180.726222,70.0735712 180.44127,69.8546696 C180.170286,69.6455591 179.745651,69.544151 179.142921,69.544151 L179.142921,69.544151 Z M167.466857,68.535665 C167.053397,68.3419406 166.619683,68.3985893 166.190857,68.7168009 C166.003683,68.8643671 165.815111,69.0084365 165.628635,69.1490091 C165.451238,69.2818887 165.248698,69.4077746 165.025905,69.5217713 C164.807302,69.6343693 164.549587,69.7301824 164.259746,69.8078121 C163.970603,69.8861411 163.626984,69.9322992 163.240762,69.9462866 L163.14019,69.9476853 C162.435492,69.9476853 161.805524,69.8008184 161.269841,69.5119802 C160.704127,69.2084553 160.224317,68.7958292 159.845079,68.2866907 C159.463048,67.7733559 159.170413,67.1760972 158.974159,66.5103006 C158.777905,65.8417066 158.67873,65.1444385 158.67873,64.4380787 C158.67873,63.7296208 158.768127,63.0379477 158.943429,62.3826416 C159.118032,61.7308323 159.379238,61.147561 159.719365,60.6489129 C160.056698,60.1551604 160.482032,59.7509268 160.984889,59.4474018 C161.480762,59.1480731 162.057651,58.9963107 162.699492,58.9963107 C163.278476,58.9963107 163.767365,59.0837314 164.152889,59.2578736 C164.555873,59.4390094 164.90927,59.6285377 165.203302,59.8229615 C165.512,60.026477 165.795556,60.1985211 166.044889,60.3341981 C166.345905,60.4978498 166.683937,60.502046 166.973079,60.3684671 C167.155365,60.3006286 167.316,60.2048154 167.450794,60.083825 C167.58419,59.9642334 167.676381,59.8607272 167.739238,59.7516261 C167.769968,59.6886832 167.811873,59.5865757 167.866349,59.4432056 C167.929905,59.2753578 167.944571,59.0746397 167.911048,58.8487444 C167.876127,58.5829853 167.725968,58.2892515 167.451492,57.9500589 C167.191683,57.6290498 166.830603,57.3206294 166.37873,57.0345886 C165.930349,56.7513453 165.393968,56.5107634 164.784254,56.3198364 C164.171746,56.1289094 163.49219,56.0316975 162.765143,56.0316975 C161.74127,56.0316975 160.77327,56.225422 159.887683,56.6065765 C159.000698,56.9891298 158.221968,57.547224 157.573841,58.265473 C156.927111,58.981624 156.407492,59.8691196 156.029651,60.9027828 C155.652508,61.9343479 155.454159,63.1232704 155.439492,64.4352813 C155.424127,65.750789 155.612,66.9453064 155.996825,67.9845645 C156.382349,69.0273194 156.932698,69.9267043 157.63181,70.6589407 C158.332317,71.3918764 159.173206,71.9576636 160.132127,72.3381188 C161.088952,72.7178746 162.135873,72.9108997 163.244254,72.9108997 C164.017397,72.9108997 164.72419,72.8017986 165.345778,72.5870932 C165.963873,72.3730871 166.496762,72.1129229 166.929778,71.8142936 C167.366984,71.5121674 167.712698,71.1967532 167.957143,70.8757442 C168.212762,70.5393491 168.353841,70.2707925 168.390159,70.0455966 C168.424381,69.7532615 168.373397,69.465822 168.24,69.1902717 C168.101016,68.9063291 167.837016,68.6839307 167.466857,68.535665 L167.466857,68.535665 Z M145.923619,65.9934691 L147.323937,61.3678613 L148.724254,65.9934691 L145.923619,65.9934691 Z M148.955429,57.3171325 C148.870222,57.0387848 148.688635,56.7891111 148.416254,56.5765038 C148.141079,56.3631971 147.773714,56.2547953 147.323937,56.2547953 C146.874159,56.2547953 146.506794,56.3631971 146.230921,56.5765038 C145.957841,56.7898105 145.776254,57.0387848 145.693143,57.312237 L141.207238,70.735871 C140.975365,71.4289428 141.027048,71.9394801 141.359492,72.2520968 C141.666095,72.540935 142.074667,72.6871025 142.576127,72.6871025 C143.075492,72.6871025 143.465905,72.5598179 143.73619,72.3094448 C143.99181,72.0716603 144.192952,71.7548474 144.33473,71.3687973 L145.241968,68.9350031 L149.384952,68.9350031 L150.379492,71.4834934 C150.505905,71.8072999 150.690286,72.0912426 150.927746,72.326929 C151.170794,72.5668115 151.526984,72.6885013 151.98654,72.6885013 L152.071746,72.6871025 C152.573206,72.6871025 152.982476,72.5367388 153.289778,72.2388088 C153.61873,71.9205972 153.684381,71.4310409 153.483937,70.7792317 L148.955429,57.3171325 Z M139.461905,56.4785925 L132.732,56.4785925 C132.216571,56.4785925 131.83454,56.5800006 131.564254,56.7884117 C131.278603,57.0080127 131.134032,57.3870691 131.134032,57.91579 L131.134032,71.5625217 C131.134032,71.830379 131.261841,72.0884451 131.514667,72.3297264 C131.766095,72.5703084 132.16419,72.6871025 132.732,72.6871025 C133.295619,72.6871025 133.699302,72.5717071 133.965397,72.3339226 C134.236381,72.0926413 134.37327,71.8331764 134.37327,71.5625217 L134.37327,65.6738587 L138.78654,65.6738587 C139.308254,65.6738587 139.67981,65.565457 139.924254,65.3416598 C140.171492,65.1150652 140.297206,64.7430024 140.297206,64.2366613 C140.297206,63.7499024 140.174286,63.3771403 139.91727,63.114878 C139.634413,62.8756947 139.253778,62.7547044 138.78654,62.7547044 L134.37327,62.7547044 L134.37327,59.3977468 L139.439556,59.3977468 C139.905397,59.3977468 140.277651,59.2893451 140.545143,59.0746397 C140.830794,58.8459469 140.966984,58.4619949 140.950222,57.9318754 C140.93346,57.411547 140.796571,57.0338892 140.541651,56.8086933 C140.293714,56.5897917 139.93054,56.4785925 139.461905,56.4785925 L139.461905,56.4785925 Z M120.331683,62.9778022 L120.331683,59.4425063 L122.415048,59.4425063 C122.720952,59.4425063 123.02127,59.4683828 123.306222,59.5180378 C123.576508,59.5655947 123.816063,59.6537149 124.017905,59.7803001 C124.21346,59.9033886 124.363619,60.0705371 124.478159,60.2915368 C124.592,60.5139352 124.649968,60.8041722 124.649968,61.1545546 C124.649968,61.9070726 124.473968,62.3994264 124.126857,62.6176286 C123.747619,62.8568118 123.172127,62.9778022 122.415048,62.9778022 L120.331683,62.9778022 Z M124.051429,65.7710706 C124.070984,65.7675738 124.09054,65.7633776 124.110095,65.7591814 L124.550095,65.6689632 C125.562095,65.4367736 126.379937,64.9556097 126.979873,64.2387594 C127.583302,63.5177129 127.889206,62.4728598 127.889206,61.1321749 C127.889206,60.261464 127.771175,59.5173385 127.537206,58.9207791 C127.298349,58.315128 126.939365,57.8234736 126.468635,57.4584045 C126.003492,57.0996297 125.419619,56.8422629 124.732381,56.695396 C124.060508,56.5513266 123.280381,56.4785925 122.415048,56.4785925 L119.126222,56.4785925 C118.741397,56.4785925 118.420127,56.4981748 118.170095,56.5366399 C117.892127,56.5807 117.67981,56.6632252 117.519873,56.7905098 C117.353651,56.9233894 117.238413,57.1115189 117.176254,57.3472053 C117.120381,57.5598126 117.093143,57.8262711 117.093143,58.1619668 L117.093143,71.3170442 C117.093143,71.6338571 117.211175,71.9415782 117.444444,72.2311158 C117.687492,72.5339413 118.098857,72.6871025 118.668762,72.6871025 C119.230286,72.6871025 119.652127,72.5465299 119.92381,72.2688816 C120.194794,71.9905338 120.331683,71.6702241 120.331683,71.3170442 L120.331683,66.4354685 L125.755556,72.2912613 C126.014667,72.5570204 126.351302,72.6919981 126.754286,72.6919981 C126.800381,72.6919981 126.846476,72.6899 126.894667,72.6864032 C127.348635,72.6528336 127.743937,72.4675016 128.069397,72.1346033 C128.399746,71.7954107 128.558984,71.3974713 128.542222,70.9512757 C128.526159,70.5120738 128.352254,70.11903 128.024698,69.7833342 L124.051429,65.7710706 Z M112.658222,56.2547953 C112.059683,56.2547953 111.632952,56.4086559 111.389905,56.7107821 C111.156635,57.001019 111.038603,57.3087401 111.038603,57.625553 L111.038603,65.8892635 C111.038603,66.5291835 110.995302,67.1033631 110.910794,67.5950175 C110.829079,68.0684884 110.676127,68.4727221 110.45473,68.7958292 C110.237524,69.1126421 109.94,69.3595184 109.569143,69.528765 C109.191302,69.7022078 108.698921,69.7896285 108.105968,69.7896285 C107.499048,69.7896285 106.99619,69.6987109 106.611365,69.5182745 C106.233524,69.3420342 105.932508,69.0881643 105.715302,68.7636584 C105.49181,68.4307601 105.330476,68.0209315 105.234794,67.5446632 C105.136317,67.0551069 105.08673,66.4984114 105.08673,65.8892635 L105.08673,57.625553 C105.08673,57.2744712 104.958222,56.9555602 104.704698,56.6786112 C104.447683,56.397466 104.031429,56.2547953 103.467111,56.2547953 C102.9,56.2547953 102.482349,56.4065578 102.224635,56.7058865 C101.974603,56.9975222 101.847492,57.306642 101.847492,57.625553 L101.847492,67.2740085 C101.847492,68.214656 102.035365,69.0413068 102.406222,69.7315812 C102.774286,70.4162606 103.258286,70.9946364 103.844952,71.4499238 C104.428127,71.9024137 105.098603,72.2444037 105.838222,72.4668022 C106.572952,72.6871025 107.328635,72.7990011 108.084317,72.7990011 C108.853968,72.7990011 109.617333,72.6871025 110.352063,72.4668022 C111.092381,72.2444037 111.760063,71.8975181 112.336952,71.4366358 C112.915937,70.9736554 113.388762,70.3917828 113.742159,69.7057046 C114.096952,69.0154302 114.277143,68.1971718 114.277143,67.2740085 L114.277143,57.625553 C114.277143,57.2744712 114.148635,56.9555602 113.89581,56.6786112 C113.638095,56.397466 113.221841,56.2547953 112.658222,56.2547953 L112.658222,56.2547953 Z M98.7269841,64.8087428 C98.403619,64.4541641 97.9894603,64.1191678 97.496381,63.812146 C97.0130794,63.5121179 96.4333968,63.2071943 95.7747937,62.9064668 C95.5114921,62.7861759 95.2146667,62.6588912 94.8857143,62.5239136 C94.5707302,62.3945308 94.2669206,62.2350753 93.9826667,62.0497433 C93.704,61.8693068 93.4679365,61.6587976 93.2793651,61.4231112 C93.1054603,61.2077065 93.0209524,60.9587321 93.0209524,60.6635996 C93.0209524,60.4831631 93.0600635,60.295733 93.1361905,60.1062048 C93.2137143,59.9145784 93.3219683,59.7397369 93.4574603,59.5865757 C93.5929524,59.4355126 93.759873,59.308228 93.9540317,59.208918 C94.3165079,59.0221872 94.8165714,59.0242853 95.2733333,59.1662566 C95.5010159,59.2368926 95.7182222,59.3229147 95.9186667,59.4222247 C96.1205079,59.5215347 96.3139683,59.6334332 96.4948571,59.755123 C96.6813333,59.8803095 96.8468571,59.9950055 96.9746667,60.0845244 C97.103873,60.1978217 97.268,60.2740526 97.4628571,60.3104197 C97.6486349,60.345388 97.84,60.3404924 98.0327619,60.2978311 C98.2220317,60.2558691 98.4050159,60.1789388 98.576127,60.0705371 C98.7535238,59.9579391 98.9036825,59.8040786 99.0252063,59.6082561 C99.2466032,59.224304 99.2766349,58.8137761 99.116,58.3871628 C98.9651429,57.9892234 98.6801905,57.61786 98.2688254,57.2828636 C97.8686349,56.9576583 97.3615873,56.6835068 96.7609524,56.468102 C96.1624127,56.2533966 95.5038095,56.1366025 94.804,56.1212164 L94.660127,56.1191183 C94.0804444,56.1191183 93.5035556,56.2058397 92.944127,56.3757857 C92.3351111,56.5604184 91.7826667,56.8422629 91.3007619,57.212927 C90.8146667,57.5863885 90.4179683,58.0640556 90.1218413,58.6326403 C89.8243175,59.2047218 89.6727619,59.8726165 89.6727619,60.6181408 C89.6727619,61.3175069 89.7970794,61.9343479 90.0422222,62.4518788 C90.2845714,62.9652136 90.615619,63.4156054 91.0262857,63.7897663 C91.4313651,64.1590316 91.9125714,64.4821388 92.4566349,64.7492967 C92.988127,65.0108596 93.5699048,65.2577359 94.1900952,65.4843305 C94.4003175,65.5570646 94.6370794,65.6584727 94.8947937,65.787156 C95.1455238,65.9123426 95.3801905,66.0710987 95.5904127,66.2592282 C95.7985397,66.4452596 95.9787302,66.6655599 96.1274921,66.9145343 C96.2671746,67.1474232 96.3377143,67.4264703 96.3377143,67.7432832 C96.3377143,68.0831751 96.2776508,68.3880988 96.1603175,68.6496617 C96.0422857,68.911924 95.883746,69.1322244 95.6888889,69.3049678 C95.4912381,69.4812081 95.2600635,69.6182838 95.0023492,69.7126983 C94.4233651,69.9274037 93.8024762,69.8826442 93.2989206,69.7315812 C93.0146667,69.6462585 92.7408889,69.5343599 92.4852698,69.3993822 C92.2275556,69.2637052 91.9789206,69.1112434 91.7463492,68.9454936 C91.5060952,68.7734495 91.2763175,68.6125953 91.0549206,68.4608328 C90.767873,68.2713046 90.4570794,68.1950737 90.1232381,68.2391338 C89.7789206,68.2852919 89.4841905,68.5006967 89.2544127,68.8706614 C89.1140317,69.0692814 89.0386032,69.3112621 89.0309206,69.5903092 C89.0218413,69.8567677 89.0749206,70.1337167 89.1873651,70.4134632 C89.2977143,70.6883141 89.4758095,70.9617662 89.7174603,71.2254273 C89.9584127,71.4883889 90.2817778,71.7247747 90.676381,71.9261921 C91.1038095,72.1534861 91.6164444,72.3653941 92.2003175,72.554223 C92.712254,72.7206721 93.2626032,72.8052954 93.8353016,72.8052954 C93.9260952,72.8052954 94.0182857,72.8031973 94.108381,72.7983017 C95.9403175,72.7381563 97.3273651,72.2325145 98.2325079,71.2967626 C99.1376508,70.3610107 99.6111746,69.1140408 99.6419048,67.5929195 C99.6565714,67.0194392 99.5909206,66.4998101 99.4463492,66.0473202 C99.2996825,65.588536 99.0573333,65.1724132 98.7269841,64.8087428 L98.7269841,64.8087428 Z M70.788381,72.277274 L70.788381,68.3517317 L73.2845079,68.3517317 C73.6972698,68.3517317 74.0318095,67.9775708 74.0318095,67.5152898 C74.0318095,67.0537081 73.6972698,66.6795473 73.2845079,66.6795473 L70.7813968,66.6795473 L70.7723175,65.2982991 L75.7310476,65.2982991 C76.1438095,65.2982991 76.4783492,64.9241382 76.4783492,64.4625565 C76.4783492,64.0002755 76.1438095,63.6261146 75.7310476,63.6261146 L70.7618413,63.6261146 L70.7534603,62.2896259 L73.2845079,62.2896259 C73.6972698,62.2896259 74.0318095,61.9147656 74.0318095,61.453184 C74.0318095,60.9909029 73.6972698,60.6167421 73.2845079,60.6167421 L70.7429841,60.6167421 L70.7192381,56.8114908 L81.152127,64.4961261 L70.788381,72.277274 Z M70.1912381,53.2426253 C69.8085079,52.9586827 69.3014603,52.9209169 68.8810159,53.1454134 C68.4605714,53.3657138 68.1965714,53.8105106 68.1965714,54.2979688 L68.1979683,60.6167421 L63.6017143,60.6167421 C63.1889524,60.6167421 62.8544127,60.9909029 62.8544127,61.453184 C62.8544127,61.9147656 63.1889524,62.2896259 63.6017143,62.2896259 L68.1979683,62.2896259 L68.1986667,63.6261146 L60.7473016,63.6261146 C60.3345397,63.6261146 60,64.0002755 60,64.4625565 C60,64.9241382 60.3345397,65.2982991 60.7473016,65.2982991 L68.1986667,65.2982991 L68.1986667,66.6795473 L63.6017143,66.6795473 C63.1889524,66.6795473 62.8544127,67.0537081 62.8544127,67.5152898 C62.8544127,67.9775708 63.1889524,68.3517317 63.6017143,68.3517317 L68.1993651,68.3517317 L68.2007619,74.7026758 C68.2007619,75.190134 68.4647619,75.6307347 68.8852063,75.8552312 C69.0660952,75.9531425 69.2644444,76 69.4620952,76 C69.7219048,76 69.9775238,75.9195729 70.1954286,75.7580193 L84.0540317,65.5689538 C84.3836825,65.3269731 84.5820317,64.9325306 84.5820317,64.5171071 C84.5736508,64.089095 84.3794921,63.6953519 84.0498413,63.4533712 L70.1912381,53.2426253 Z" id="logo"></path>
        </g>
    </g>
</svg>