<?xml version="1.0" encoding="UTF-8"?>
<svg width="34px" height="24px" viewBox="0 0 34 24" version="1.1" xmlns="http://www.w3.org/2000/svg" xmlns:xlink="http://www.w3.org/1999/xlink">
    <!-- Generator: sketchtool 58 (101010) - https://sketch.com -->
    <title>749D5B1C-43F6-4388-A819-80593F7F5DC1@1</title>
    <desc>Created with sketchtool.</desc>
    <g id="Page-1" stroke="none" stroke-width="1" fill="none" fill-rule="evenodd">
        <g id="Connected-cars" transform="translate(-218.000000, -321.000000)">
            <g id="label" transform="translate(208.000000, 305.000000)">
                <g id="motor" transform="translate(10.000000, 16.000000)">
                    <polygon id="Path" fill="#5A6470" points="25.7142857 8 28 8 28 21.7142857 25.7142857 21.7142857"></polygon>
                    <polygon id="Path" fill="#CFDFE8" points="22.8571429 8 22.8571429 4.57142857 11.4285714 4.57142857 11.4285714 8 8 10.2857143 4.57142857 10.2857143 4.57142857 19.4285714 8 19.4285714 11.4285714 21.7142857 25.7142857 21.7142857 25.7142857 8"></polygon>
                    <polygon id="Path" fill="#2680A8" points="0 7.42857143 2.28571429 7.42857143 2.28571429 21.7142857 0 21.7142857"></polygon>
                    <polygon id="Path" fill="#5A6470" points="2.28571429 12.5714286 4.57142857 12.5714286 4.57142857 17.1428571 2.28571429 17.1428571"></polygon>
                    <polygon id="Path" fill="#5A6470" points="32.5714286 20 30.2857143 20 30.2857143 9.71428571 32.5714286 9.71428571 33.1428571 11.4285714 33.1428571 18.2857143"></polygon>
                    <polygon id="Path" fill="#2680A8" points="28 13.1428571 30.2857143 13.1428571 30.2857143 16.5714286 28 16.5714286"></polygon>
                    <polygon id="Path" fill="#2680A8" points="16 2.28571429 18.2857143 2.28571429 18.2857143 4.57142857 16 4.57142857"></polygon>
                    <polygon id="Path" fill="#5A6470" points="8 0 26.2857143 0 26.2857143 2.28571429 8 2.28571429"></polygon>
                    <g id="Group" transform="translate(7.428571, 7.428571)" fill="#9CA8B5">
                        <path d="M15.4285714,1.14285714 L9.14285714,1.14285714 C8.82728793,1.14285714 8.57142857,0.886997786 8.57142857,0.571428571 C8.57142857,0.255859357 8.82728793,0 9.14285714,0 L15.4285714,0 C15.7441406,0 16,0.255859357 16,0.571428571 C16,0.886997786 15.7441406,1.14285714 15.4285714,1.14285714 Z" id="Path"></path>
                        <path d="M6.85714286,1.14285714 L6.28571429,1.14285714 C5.97014507,1.14285714 5.71428571,0.886997786 5.71428571,0.571428571 C5.71428571,0.255859357 5.97014507,0 6.28571429,0 L6.85714286,0 C7.17271207,0 7.42857143,0.255859357 7.42857143,0.571428571 C7.42857143,0.886997786 7.17271207,1.14285714 6.85714286,1.14285714 Z" id="Path"></path>
                        <path d="M0.571428571,7.42857143 C0.255859357,7.42857143 0,7.17271207 0,6.85714286 L0,2.85714286 C0,2.54157364 0.255859357,2.28571429 0.571428571,2.28571429 C0.886997786,2.28571429 1.14285714,2.54157364 1.14285714,2.85714286 L1.14285714,6.85714286 C1.14285714,7.17271207 0.886997786,7.42857143 0.571428571,7.42857143 Z" id="Path"></path>
                        <path d="M0.571428571,10.2857143 C0.255859357,10.2857143 0,10.0298549 0,9.71428571 L0,9.14285714 C0,8.82728793 0.255859357,8.57142857 0.571428571,8.57142857 C0.886997786,8.57142857 1.14285714,8.82728793 1.14285714,9.14285714 L1.14285714,9.71428571 C1.14285714,10.0298549 0.886997786,10.2857143 0.571428571,10.2857143 Z" id="Path"></path>
                        <path d="M16,4.57142857 L2.85714286,4.57142857 C2.54157364,4.57142857 2.28571429,4.31556921 2.28571429,4 C2.28571429,3.68443079 2.54157364,3.42857143 2.85714286,3.42857143 L16,3.42857143 C16.3155692,3.42857143 16.5714286,3.68443079 16.5714286,4 C16.5714286,4.31556921 16.3155692,4.57142857 16,4.57142857 Z" id="Path"></path>
                        <path d="M16,6.85714286 L2.85714286,6.85714286 C2.54157364,6.85714286 2.28571429,6.6012835 2.28571429,6.28571429 C2.28571429,5.97014507 2.54157364,5.71428571 2.85714286,5.71428571 L16,5.71428571 C16.3155692,5.71428571 16.5714286,5.97014507 16.5714286,6.28571429 C16.5714286,6.6012835 16.3155692,6.85714286 16,6.85714286 Z" id="Path"></path>
                        <path d="M16,9.14285714 L2.85714286,9.14285714 C2.54157364,9.14285714 2.28571429,8.88699779 2.28571429,8.57142857 C2.28571429,8.25585936 2.54157364,8 2.85714286,8 L16,8 C16.3155692,8 16.5714286,8.25585936 16.5714286,8.57142857 C16.5714286,8.88699779 16.3155692,9.14285714 16,9.14285714 Z" id="Path"></path>
                        <path d="M16,11.4285714 L2.85714286,11.4285714 C2.54157364,11.4285714 2.28571429,11.1727121 2.28571429,10.8571429 C2.28571429,10.5415736 2.54157364,10.2857143 2.85714286,10.2857143 L16,10.2857143 C16.3155692,10.2857143 16.5714286,10.5415736 16.5714286,10.8571429 C16.5714286,11.1727121 16.3155692,11.4285714 16,11.4285714 Z" id="Path"></path>
                    </g>
                    <polygon id="Path" fill="#5A6470" points="13.1428571 21.7142857 21.1428571 21.7142857 21.1428571 24 13.1428571 24"></polygon>
                </g>
            </g>
        </g>
    </g>
</svg>