<?xml version="1.0" encoding="UTF-8"?>
<svg width="539px" height="273px" viewBox="0 0 539 273" version="1.1" xmlns="http://www.w3.org/2000/svg" xmlns:xlink="http://www.w3.org/1999/xlink">
    <!-- Generator: sketchtool 58 (101010) - https://sketch.com -->
    <title>D20EF864-A0CA-4C31-8C8E-F7054BDFA423@1</title>
    <desc>Created with sketchtool.</desc>
    <defs>
        <linearGradient x1="83.4477195%" y1="50%" x2="30.3609105%" y2="50%" id="linearGradient-1">
            <stop stop-color="#FFFFFF" offset="0%"></stop>
            <stop stop-color="#D3DCF1" offset="71.1118136%"></stop>
            <stop stop-color="#FFFFFF" offset="100%"></stop>
        </linearGradient>
        <linearGradient x1="91.0107094%" y1="50%" x2="35.9161745%" y2="47.275998%" id="linearGradient-2">
            <stop stop-color="#F8FCFF" offset="0%"></stop>
            <stop stop-color="#D3DCF1" offset="100%"></stop>
        </linearGradient>
        <path d="M0.855,14.722 C3.01,20.065 9.089,22.651 14.434,20.497 C19.777,18.343 22.363,12.264 20.209,6.919 C18.055,1.575 11.976,-1.011 6.631,1.144 C1.286,3.298 -1.299,9.377 0.855,14.722" id="path-3"></path>
        <linearGradient x1="100%" y1="50%" x2="18.7699945%" y2="50%" id="linearGradient-5">
            <stop stop-color="#AFD8F3" offset="0%"></stop>
            <stop stop-color="#EDF8FE" offset="100%"></stop>
        </linearGradient>
        <linearGradient x1="100%" y1="50%" x2="18.7699945%" y2="50%" id="linearGradient-6">
            <stop stop-color="#AFD8F3" offset="0%"></stop>
            <stop stop-color="#EDF8FE" offset="100%"></stop>
        </linearGradient>
    </defs>
    <g id="Page-1" stroke="none" stroke-width="1" fill="none" fill-rule="evenodd">
        <g id="Connected-cars" transform="translate(-479.000000, -2423.000000)">
            <g id="Download" transform="translate(479.000000, 2423.000000)">
                <rect id="Rectangle" fill="url(#linearGradient-1)" fill-rule="nonzero" transform="translate(318.500000, 266.000000) scale(-1, 1) translate(-318.500000, -266.000000) " x="98" y="259" width="441" height="14"></rect>
                <path d="M209.748146,244.584931 C257.416827,244.584931 297.08539,276.829085 394.934155,244.584931 C492.782919,212.340777 400.933593,172.364694 424.053073,131.42288 C447.172554,90.4810662 444.30783,7.0639523 332.223664,66.4446637 C297.39126,84.8984111 258.141302,32.4793049 209.748146,32.4793049 C180.158155,32.4793049 156.046683,27.560668 133.433462,17.9954033 C-11.8680875,-43.4663334 -32.6421816,66.4446637 42.766515,138.532118 C118.175212,210.619572 38.9167964,171.654124 139.93257,195.226132 C220.063271,213.924613 178.886405,244.584931 209.748146,244.584931 Z" id="Oval" fill="url(#linearGradient-2)" fill-rule="nonzero"></path>
                <g id="man" transform="translate(260.000000, 82.000000)">
                    <polyline id="Fill-56" fill="#184C81" points="34.099 17.866 54.574 15.472 56.932 13.265 56.224 11.508 50.379 10 37.191 10.122 31.086 12.332 30 13.692 34.099 17.866"></polyline>
                    <path d="M88.042311,178.635405 C87.896311,178.229405 87.401311,178.073405 87.055311,178.331405 C86.377311,178.840405 85.169311,179.451405 83.409311,179.270405 C81.581311,179.083405 80.914311,178.129405 80.671311,177.449405 C80.543311,177.090405 80.155311,176.903405 79.804311,177.050405 L68.573311,181.774405 C67.892311,182.061405 67.352311,182.607405 67.072311,183.292405 C66.811311,183.937405 67.289311,184.640405 67.985311,184.633457 L87.196311,184.449405 C87.951311,184.442405 88.547311,183.802405 88.500311,183.047405 L88.271311,179.343405 C88.267311,179.282405 88.254311,179.221405 88.234311,179.163405 L88.042311,178.635405" id="Fill-57" fill="#0B1619"></path>
                    <polyline id="Fill-58" fill="#5C67A1" points="67.206 99 69.279 130.913 88.131 179.427 77.611 180.106 56.36 140.629 48 111.255 67.206 99"></polyline>
                    <path d="M21.6211125,179.012654 C21.6041125,178.580654 21.1791125,178.281654 20.7721125,178.423654 C19.9721125,178.701654 18.6351125,178.917654 17.0131125,178.211654 C15.3291125,177.478654 14.9821125,176.367654 14.9571125,175.645654 C14.9431125,175.265654 14.6301125,174.968654 14.2511125,175.002654 L2.11711248,176.097654 C1.38011248,176.163654 0.700112479,176.520654 0.226112479,177.089654 C-0.218887521,177.623654 0.0231124788,178.438654 0.688112479,178.643654 L19.0501125,184.295654 C19.7731125,184.517654 20.5341125,184.088654 20.7181125,183.354654 L21.6241125,179.756654 C21.6381125,179.696654 21.6451125,179.635654 21.6421125,179.573654 L21.6211125,179.012654" id="Fill-59" fill="#0B1619"></path>
                    <path d="M53.107,34.995 L53.853,34.694 C56.324,33.698 57.519,30.888 56.523,28.417 L49.905,12 L41,15.59 L47.936,32.795 C48.757,34.83 51.072,35.815 53.107,34.995" id="Fill-60" fill="#F4BE99"></path>
                    <path d="M48.526,24 C48.526,24 50.878,28.32 47.216,31.479 L46,28.465 L48.526,24" id="Fill-61" fill="#F2B28E"></path>
                    <path d="M34.7593465,18.3377755 C36.9143465,23.6807755 42.9933465,26.2667755 48.3383465,24.1127755 C53.6813465,21.9587755 56.2673465,15.8797755 54.1133465,10.5347755 C51.9593465,5.19077553 45.8803465,2.60477553 40.5353465,4.75977553 C35.1903465,6.91377553 32.6053465,12.9927755 34.7593465,18.3377755" id="Fill-62" fill="#F4BE99"></path>
                    <path d="M46.897,28.713 L46.897,28.713 C49.435,27.689 50.663,24.803 49.64,22.265 L45.904,13 L35,17.395 L38.045,24.947 C39.449,28.431 43.413,30.117 46.897,28.713" id="Fill-63" fill="#F4BE99"></path>
                    <path d="M35.8682379,20 L35.0092379,23.965 C34.9152379,24.593 35.5552379,25.06 36.1722379,24.812 L38.8082379,24.288 L35.8682379,20" id="Fill-64" fill="#F4BE99"></path>
                    <g id="Group-67" transform="translate(34.000000, 3.000000)">
                        <mask id="mask-4" fill="white">
                            <use xlink:href="#path-3"></use>
                        </mask>
                        <g id="Clip-66"></g>
                        <path d="M11.278,15.414 C11.278,15.414 6.904,13.626 6.709,7.961 C6.709,7.961 0.086,11.553 -2.377,9.761 C-2.377,9.761 -1.326,-4.453 11.793,-2.953 C24.912,-1.453 24.923,12.822 24.923,12.822 L17.063,18.959 L11.278,15.414" id="Fill-65" fill="#061216" mask="url(#mask-4)"></path>
                    </g>
                    <path d="M44.2082167,18.9387626 C44.8002167,20.4077626 46.4712167,21.1187626 47.9402167,20.5267626 C49.4082167,19.9337626 50.1192167,18.2647626 49.5272167,16.7957626 C48.9342167,15.3267626 47.2642167,14.6167626 45.7952167,15.2087626 C44.3272167,15.8007626 43.6172167,17.4717626 44.2082167,18.9387626" id="Fill-68" fill="#F4BE99"></path>
                    <path d="M52.762,17 L54.394,21.704 C54.394,21.704 49.851,24.843 48,20.253 L51.184,19.598 L52.762,17" id="Fill-69" fill="#061216"></path>
                    <path d="M41.066,96.17 L24.108,130.99 L12,176.118 L21.339,179.758 L38.989,135.836 C38.989,135.836 70.135,108.843 68.751,95 L41.066,96.17" id="Fill-70" fill="#7980B1"></path>
                    <path d="M34,12.7467209 L34.212,4.15872086 C34.222,3.71272086 34.458,3.30372086 34.843,3.07872086 C37.018,1.80372086 44.663,-2.04627914 52.61,1.39572086 C53.011,1.56972086 53.29,1.94772086 53.359,2.37672086 L54.562,9.84272086 L34,12.7467209" id="Fill-71" fill="#7980B1"></path>
                    <path d="M34,11.7213353 L34.133,7.94033525 C34.133,7.94033525 44.348,4.86033525 54.273,6.46133525 L54.831,10.4853353 L34,11.7213353" id="Fill-72" fill="#5C67A1"></path>
                    <path d="M60.5538786,11.9661633 C57.2908786,4.69716333 29.0428786,8.82016333 27.0988786,13.2251633 C26.0058786,15.7051633 34.3348786,17.5131633 34.3348786,17.5131633 C34.3348786,17.5131633 32.2818786,15.1391633 34.7648786,14.1681633 C37.2498786,13.1981633 49.8638786,10.1461633 54.5558786,13.0431633 C54.5558786,13.0431633 55.7008786,13.9731633 54.8098786,15.1191633 C54.8098786,15.1191633 61.4608786,13.9841633 60.5538786,11.9661633" id="Fill-73" fill="#7980B1"></path>
                    <path d="M24.7971668,46.5866005 C21.4951668,45.0346005 20.0771668,41.0996005 21.6291668,37.7976005 C23.1811668,34.4956005 27.1161668,33.0766005 30.4191668,34.6296005 C33.7201668,36.1816005 35.1381668,40.1166005 33.5871668,43.4186005 C32.0341668,46.7216005 28.0981668,48.1396005 24.7971668,46.5866005" id="Fill-74" fill="#F4BE99"></path>
                    <polyline id="Fill-75" fill="#F4BE99" points="24 45.107 33.396 56.866 38.692 53.053 31.007 43 24 45.107"></polyline>
                    <polyline id="Fill-76" fill="#545E8D" points="46.742 55.761 37.114 47 28 54.476 43.108 74.013 46.742 55.761"></polyline>
                    <path d="M59.451,31.047 C59.451,31.047 68.638,36.361 70.522,55.912 C72.407,75.463 76.999,95.343 76.999,95.343 L37,99.961 C37,99.961 37.981,54.616 47.349,36.126 L44.16,31.047 L58.004,28 L59.451,31.047" id="Fill-77" fill="#384273"></path>
                    <path d="M17.1779044,32.7639399 L27.3789044,45.8439399 C27.6529044,46.1969399 28.1569044,46.2739399 28.5239044,46.0179399 L35.2369044,41.3569399 C35.6389044,41.0769399 35.7189044,40.5159399 35.4129044,40.1349399 L25.0869044,27.3139399 C24.8119044,26.9739399 24.3239044,26.8999399 23.9619044,27.1419399 L17.3749044,31.5439399 C16.9679044,31.8169399 16.8769044,32.3779399 17.1779044,32.7639399" id="Fill-78" fill="#061216"></path>
                    <path d="M19.1187838,32.0839851 L27.0607838,42.7359851 C27.2467838,42.9849851 27.5927838,43.0509851 27.8577838,42.8869851 L32.9877838,39.6939851 C33.2927838,39.5039851 33.3637838,39.0899851 33.1377838,38.8089851 L24.5897838,28.2229851 C24.3937838,27.9789851 24.0407838,27.9279851 23.7827838,28.1059851 L19.2587838,31.2319851 C18.9797838,31.4259851 18.9157838,31.8109851 19.1187838,32.0839851" id="Fill-79" fill="#FFFFFE"></path>
                    <path d="M43.4100908,96.8258526 C40.2170908,98.5918526 39.0610908,102.612853 40.8260908,105.804853 C42.5920908,108.997853 46.6110908,110.154853 49.8050908,108.389853 C52.9970908,106.623853 54.1540908,102.603853 52.3890908,99.4108526 C50.6230908,96.2178526 46.6040908,95.0608526 43.4100908,96.8258526" id="Fill-80" fill="#F4BE99"></path>
                    <polyline id="Fill-81" fill="#F4BE99" points="42 98.352 50.604 86 56.139 89.458 49.13 99.994 42 98.352"></polyline>
                    <path d="M54.437,37.349637 C54.437,37.349637 48.361,38.502637 49.41,48.422637 C50.46,58.343637 53.832,70.571637 53.832,70.571637 L44,90.642637 L53.832,97.332637 C53.832,97.332637 68.461,77.491637 68.919,70.571637 C69.378,63.649637 68.102,33.427637 54.437,37.349637" id="Fill-82" fill="#545E8D"></path>
                </g>
                <g id="tree" transform="translate(361.000000, 98.000000)">
                    <path d="M5.68434189e-14,54.959971 C5.68434189e-14,85.3128906 7.19457614,109.919165 16.0701665,109.919165 C24.9459123,109.919165 32.1412656,85.3128906 32.1412656,54.959971 C32.1412656,24.6062742 24.9459123,-7.10542736e-15 16.0701665,-7.10542736e-15 C7.19457614,-7.10542736e-15 5.68434189e-14,24.6062742 5.68434189e-14,54.959971" id="Fill-46" fill="url(#linearGradient-5)"></path>
                    <polygon id="Fill-47" fill="#8E4A07" points="22.4813073 44.2785487 16.9678232 54.2314213 16.678781 30.3386202 14.3673768 22 14.3673768 46.7088651 8.40933197 36.8710187 6 34.7026199 14.3673768 49.8907377 14.3673768 77.9034965 6.44067459 68.0936294 7.99197349 72.1040013 14.3673768 80.5257823 14.3673768 115.084152 17.7046901 115.23493 17.0074606 57.5228796 24.2534099 42.0829478"></polygon>
                </g>
                <g id="tree" transform="translate(148.000000, 82.000000)">
                    <path d="M28.3827687,126 C35.4836962,126 41.6772878,113.151948 44.9537708,94.1020188 C46.5319697,84.9261505 58.318869,90.8318886 47.4333688,63.0004455 C36.5478685,35.1690023 41.896888,37.593727 45.1197695,32.8838739 C54.4348072,19.2710687 35.6054829,0 28.3827687,0 C21.5008998,0 18.1360898,22.0969616 12.1239352,30.154051 C-4.96673103,53.0578243 9.3332741,50.9651803 9.3332741,63.0004455 C9.3332741,74.5332465 -13.2890873,56.6289199 11.9062778,94.640309 C18.3726642,104.395926 21.3490545,126 28.3827687,126 Z" id="Fill-46" fill="url(#linearGradient-6)"></path>
                    <polygon id="Fill-47" fill="#8E4A07" points="34.5437495 61.8950668 30.0129652 72.5701139 29.7754407 46.9436655 27.8760112 38 27.8760112 64.5017255 22.9799029 53.9500508 21 51.6243144 27.8760112 67.9144729 27.8760112 97.9598206 21.3621306 87.4381554 22.6369326 91.7395175 27.8760112 100.772378 27.8760112 137.838282 30.6184961 138 30.0455378 76.1003985 36 59.5401544"></polygon>
                </g>
                <g id="LIGHT" transform="translate(115.047619, 141.000000)">
                    <path d="M11.8731905,84.7209524 L11.8731905,28.0594286 C12.8904286,27.6115714 13.6012381,26.5964286 13.6012381,25.4136667 C13.6012381,23.8170952 12.3069048,22.5238095 10.7103333,22.5238095 C9.1137619,22.5238095 7.81995238,23.8170952 7.81995238,25.4136667 C7.81995238,26.5964286 8.5307619,27.6115714 9.54747619,28.0594286 L9.54747619,84.7209524 C8.05985714,84.9241905 6.80533333,85.5098095 6.06204762,86.3039048 L4.1852381,86.3039048 L4.1852381,87.7501429 L17.2354286,87.7501429 L17.2354286,86.3039048 L15.358619,86.3039048 C14.6158571,85.5098095 13.3618571,84.9241905 11.8731905,84.7209524" id="Fill-369" fill="#A7BCEC"></path>
                    <path d="M10.7354762,2.7533531e-14 C7.282,2.7533531e-14 4.23185714,1.70814286 2.3707619,4.323 L0.518571429,4.323 L0.518571429,7.25633333 L20.952381,7.25633333 L20.952381,4.323 L19.0991429,4.323 C17.2380476,1.70814286 14.1889524,2.7533531e-14 10.7354762,2.7533531e-14" id="Fill-370" fill="#A7BCEC"></path>
                    <polyline id="Fill-371" fill="#FFFFFE" points="7.38780952 22.1859524 15.0768095 22.1859524 17.7372381 7.33333333 3.66142857 7.33333333 7.38780952 22.1859524"></polyline>
                    <polygon id="Fill-372" fill="#A7BCEC" points="5.23285714 23.1953333 15.4293333 23.1953333 15.4293333 20.4285714 5.23285714 20.4285714"></polygon>
                    <path d="M10.5641905,22 C9.3557619,22 8.37571429,22.9800476 8.37571429,24.1884762 C8.37571429,25.3969048 9.3557619,26.3769524 10.5641905,26.3769524 C11.772619,26.3769524 12.7526667,25.3969048 12.7526667,24.1884762 C12.7526667,22.9800476 11.772619,22 10.5641905,22" id="Fill-373" fill="#A7BCEC"></path>
                </g>
            </g>
        </g>
    </g>
</svg>